#!OML:ASF F:\VICON\USERDATA\INSTALL\Justin_Nancy\Justin_Nancy.ASF
:FULLY-SPECIFIED
:DEGREES
189
root -0.599133 16.6645 4.24295 -112.801 -76.3618 118.098
lowerback 9.52351 -0.467565 -7.20093
upperback 0.00353354 -1.55068 -1.44792
thorax -5.20583 -0.620144 2.74701
lowerneck -19.3241 -2.69148 -10.4262
upperneck 20.8678 -2.27066 6.33614
head 10.0333 -1.19229 3.64728
rclavicle -3.18055e-015 -3.97569e-015
rhumerus -47.3627 -27.1361 -58.452
rradius 21.7869
rwrist 22.1079
rhand -11.0582 8.92086
rfingers 7.12502
rthumb 14.9645 -20.5185
lclavicle -3.18055e-015 -3.97569e-015
lhumerus -21.6837 16.6699 72.8897
lradius 32.1114
lwrist -2.35791
lhand -20.5194 25.8418
lfingers 7.12502
lthumb 5.83835 55.7413
rfemur -39.9055 2.1336 15.8191
rtibia 77.5194
rfoot -15.1984 -1.57173
rtoes 9.36373
lfemur -4.2577 10.2743 -33.922
ltibia 18.1706
lfoot -24.3308 17.6728
ltoes -29.6111
190
root -0.793082 16.6257 4.28342 -113.859 -76.374 119.066
lowerback 9.77623 -0.460286 -7.18356
upperback -0.0114113 -1.55589 -1.34772
thorax -5.36107 -0.615277 2.84869
lowerneck -19.2613 -2.6562 -10.6165
upperneck 20.5978 -2.21678 6.58567
head 9.92494 -1.14736 3.77112
rclavicle 1.09332e-014 -7.95139e-015
rhumerus -47.3434 -26.3951 -58.7043
rradius 21.8895
rwrist 21.4659
rhand -10.6917 9.18041
rfingers 7.12502
rthumb 15.3174 -20.2323
lclavicle 1.09332e-014 -7.95139e-015
lhumerus -21.6841 16.3375 73.3206
lradius 32.7372
lwrist -1.51439
lhand -20.2133 25.5326
lfingers 7.12502
lthumb 6.13392 55.4238
rfemur -41.1382 2.42504 16.1603
rtibia 75.8179
rfoot -15.1874 -3.24682
rtoes 2.95043
lfemur -3.30019 11.009 -33.8928
ltibia 17.903
lfoot -25.5806 18.0063
ltoes -32.9187
191
root -1.00307 16.5967 4.31337 -113.338 -76.299 118.612
lowerback 9.67689 -0.422976 -7.29392
upperback -0.0181681 -1.52036 -1.47861
thorax -5.31727 -0.599312 2.76613
lowerneck -19.2843 -2.69669 -10.4706
upperneck 20.4724 -2.37855 6.87345
head 9.90046 -1.17343 3.82519
rclavicle -3.37934e-014 -4.29375e-014
rhumerus -47.3469 -25.4846 -59.4319
rradius 22.0663
rwrist 19.2806
rhand -10.4671 9.3704
rfingers 7.12502
rthumb 15.5338 -20.0257
lclavicle -3.37934e-014 -4.29375e-014
lhumerus -21.5648 15.1471 73.6854
lradius 33.4942
lwrist -0.135851
lhand -19.8505 25.432
lfingers 7.12502
lthumb 6.48415 55.3128
rfemur -42.4285 2.44437 16.0517
rtibia 73.9188
rfoot -15.5519 -3.91974
rtoes 4.66969
lfemur -2.32466 11.8568 -34.0264
ltibia 17.4045
lfoot -26.4211 18.6492
ltoes -34.6645
192
root -1.21311 16.5798 4.33865 -112.559 -76.4337 117.879
lowerback 9.6617 -0.455892 -7.24993
upperback -0.00983406 -1.55776 -1.48836
thorax -5.29738 -0.61988 2.73597
lowerneck -19.4966 -2.76568 -10.3652
upperneck 20.4935 -2.47983 6.86601
head 9.95564 -1.20857 3.79162
rclavicle 1.63003e-014 -3.10104e-014
rhumerus -47.2724 -24.5349 -60.2449
rradius 22.4398
rwrist 16.5968
rhand -10.1954 9.15302
rfingers 7.12502
rthumb 15.7954 -20.2225
lclavicle 1.63003e-014 -3.10104e-014
lhumerus -21.446 13.9167 74.1354
lradius 34.1883
lwrist 1.15233
lhand -19.3102 25.2695
lfingers 7.12502
lthumb 7.00576 55.1335
rfemur -43.5021 2.61467 15.9281
rtibia 71.8115
rfoot -15.7917 -4.2247
rtoes 7.1123
lfemur -1.07156 12.8239 -33.9116
ltibia 16.4749
lfoot -26.5783 19.3199
ltoes -34.244
193
root -1.41767 16.5857 4.36482 -112.41 -76.6268 117.648
lowerback 9.88748 -0.672959 -7.25475
upperback 0.0318128 -1.84532 -1.21399
thorax -5.34199 -0.755013 3.07074
lowerneck -19.7521 -2.64559 -10.5064
upperneck 20.3778 -2.15265 6.56151
head 9.92934 -1.09535 3.75035
rclavicle 2.68359e-014 8.74653e-015
rhumerus -46.8912 -23.5612 -60.8711
rradius 22.8695
rwrist 15.0477
rhand -10.2741 8.65087
rfingers 7.12502
rthumb 15.7197 -20.7307
lclavicle 2.68359e-014 8.74653e-015
lhumerus -21.6051 13.6981 74.6555
lradius 34.9602
lwrist 1.99533
lhand -19.3439 25.1009
lfingers 7.12502
lthumb 6.97315 54.9661
rfemur -44.2752 3.20297 15.6072
rtibia 69.457
rfoot -15.786 -3.99462
rtoes 11.2208
lfemur 0.6824 11.1285 -34.031
ltibia 14.9285
lfoot -25.0917 18.4866
ltoes -34.5443
194
root -1.61999 16.5841 4.39301 -112.157 -76.6853 117.292
lowerback 10.1724 -0.876801 -7.56219
upperback 0.0462824 -2.15456 -0.882655
thorax -5.43107 -0.889772 3.64203
lowerneck -19.9589 -2.46062 -10.6144
upperneck 20.2877 -1.7368 6.1868
head 9.89457 -0.94901 3.69129
rclavicle -1.98785e-015 -1.03368e-014
rhumerus -46.3779 -22.1677 -61.505
rradius 23.2693
rwrist 13.7253
rhand -10.5522 8.18782
rfingers 7.12502
rthumb 15.4519 -21.2146
lclavicle -1.98785e-015 -1.03368e-014
lhumerus -21.9744 13.4142 75.2234
lradius 35.8942
lwrist 2.86667
lhand -19.6356 25.4023
lfingers 7.12502
lthumb 6.69164 55.2766
rfemur -44.9521 3.8516 15.0323
rtibia 66.9115
rfoot -15.6093 -3.71075
rtoes 16.4199
lfemur 2.64112 10.6376 -34.1436
ltibia 12.8938
lfoot -25.2285 17.7971
ltoes -34.9924
